<mxfile host="app.diagrams.net" modified="2023-12-07T17:51:48.923Z" agent="Mozilla/5.0 (X11; Ubuntu; Linux x86_64; rv:120.0) Gecko/20100101 Firefox/120.0" etag="Ct6v5hjB0ZUiEZgGq7JE" version="22.1.7" type="device">
  <diagram id="C5RBs43oDa-KdzZeNtuy" name="Page-1">
    <mxGraphModel dx="2954" dy="1126" grid="1" gridSize="10" guides="1" tooltips="1" connect="1" arrows="1" fold="1" page="1" pageScale="1" pageWidth="827" pageHeight="1169" math="0" shadow="0">
      <root>
        <mxCell id="WIyWlLk6GJQsqaUBKTNV-0" />
        <mxCell id="WIyWlLk6GJQsqaUBKTNV-1" parent="WIyWlLk6GJQsqaUBKTNV-0" />
        <mxCell id="0XRMf7zQcTW81m_GGGOq-146" style="edgeStyle=orthogonalEdgeStyle;rounded=0;orthogonalLoop=1;jettySize=auto;html=1;exitX=0.5;exitY=0;exitDx=0;exitDy=0;entryX=0.5;entryY=1;entryDx=0;entryDy=0;" parent="WIyWlLk6GJQsqaUBKTNV-1" source="WIyWlLk6GJQsqaUBKTNV-3" target="0XRMf7zQcTW81m_GGGOq-0" edge="1">
          <mxGeometry relative="1" as="geometry" />
        </mxCell>
        <mxCell id="7uXqOGeaRiAeMGcWkN8i-2" style="edgeStyle=orthogonalEdgeStyle;rounded=0;orthogonalLoop=1;jettySize=auto;html=1;exitX=0;exitY=0.25;exitDx=0;exitDy=0;entryX=1;entryY=0.5;entryDx=0;entryDy=0;" parent="WIyWlLk6GJQsqaUBKTNV-1" source="WIyWlLk6GJQsqaUBKTNV-3" target="0XRMf7zQcTW81m_GGGOq-4" edge="1">
          <mxGeometry relative="1" as="geometry">
            <Array as="points">
              <mxPoint x="500" y="630" />
              <mxPoint x="500" y="250" />
            </Array>
          </mxGeometry>
        </mxCell>
        <mxCell id="WIyWlLk6GJQsqaUBKTNV-3" value="Home" style="rounded=1;whiteSpace=wrap;html=1;fontSize=12;glass=0;strokeWidth=1;shadow=0;" parent="WIyWlLk6GJQsqaUBKTNV-1" vertex="1">
          <mxGeometry x="690" y="620" width="120" height="40" as="geometry" />
        </mxCell>
        <mxCell id="0XRMf7zQcTW81m_GGGOq-126" style="edgeStyle=orthogonalEdgeStyle;rounded=0;orthogonalLoop=1;jettySize=auto;html=1;exitX=0.5;exitY=0;exitDx=0;exitDy=0;entryX=0.5;entryY=1;entryDx=0;entryDy=0;" parent="WIyWlLk6GJQsqaUBKTNV-1" source="0XRMf7zQcTW81m_GGGOq-0" target="0XRMf7zQcTW81m_GGGOq-86" edge="1">
          <mxGeometry relative="1" as="geometry" />
        </mxCell>
        <mxCell id="0XRMf7zQcTW81m_GGGOq-0" value="Products" style="rounded=1;whiteSpace=wrap;html=1;" parent="WIyWlLk6GJQsqaUBKTNV-1" vertex="1">
          <mxGeometry x="620" y="440" width="120" height="40" as="geometry" />
        </mxCell>
        <mxCell id="0XRMf7zQcTW81m_GGGOq-8" style="edgeStyle=orthogonalEdgeStyle;rounded=0;orthogonalLoop=1;jettySize=auto;html=1;exitX=0.25;exitY=1;exitDx=0;exitDy=0;entryX=0.5;entryY=0;entryDx=0;entryDy=0;" parent="WIyWlLk6GJQsqaUBKTNV-1" source="0XRMf7zQcTW81m_GGGOq-4" target="0XRMf7zQcTW81m_GGGOq-5" edge="1">
          <mxGeometry relative="1" as="geometry" />
        </mxCell>
        <mxCell id="0XRMf7zQcTW81m_GGGOq-9" style="edgeStyle=orthogonalEdgeStyle;rounded=0;orthogonalLoop=1;jettySize=auto;html=1;exitX=0.75;exitY=1;exitDx=0;exitDy=0;entryX=0.5;entryY=0;entryDx=0;entryDy=0;" parent="WIyWlLk6GJQsqaUBKTNV-1" source="0XRMf7zQcTW81m_GGGOq-4" target="0XRMf7zQcTW81m_GGGOq-6" edge="1">
          <mxGeometry relative="1" as="geometry" />
        </mxCell>
        <mxCell id="0XRMf7zQcTW81m_GGGOq-4" value="Login/Register" style="rounded=0;whiteSpace=wrap;html=1;" parent="WIyWlLk6GJQsqaUBKTNV-1" vertex="1">
          <mxGeometry x="160" y="230" width="120" height="40" as="geometry" />
        </mxCell>
        <mxCell id="0XRMf7zQcTW81m_GGGOq-10" style="edgeStyle=orthogonalEdgeStyle;rounded=0;orthogonalLoop=1;jettySize=auto;html=1;exitX=0.5;exitY=1;exitDx=0;exitDy=0;entryX=0.5;entryY=0;entryDx=0;entryDy=0;" parent="WIyWlLk6GJQsqaUBKTNV-1" source="0XRMf7zQcTW81m_GGGOq-5" target="0XRMf7zQcTW81m_GGGOq-7" edge="1">
          <mxGeometry relative="1" as="geometry" />
        </mxCell>
        <mxCell id="0XRMf7zQcTW81m_GGGOq-5" value="Register" style="rounded=0;whiteSpace=wrap;html=1;" parent="WIyWlLk6GJQsqaUBKTNV-1" vertex="1">
          <mxGeometry x="30" y="310" width="120" height="30" as="geometry" />
        </mxCell>
        <mxCell id="0XRMf7zQcTW81m_GGGOq-19" style="edgeStyle=orthogonalEdgeStyle;rounded=0;orthogonalLoop=1;jettySize=auto;html=1;entryX=0.5;entryY=0;entryDx=0;entryDy=0;" parent="WIyWlLk6GJQsqaUBKTNV-1" source="0XRMf7zQcTW81m_GGGOq-6" target="0XRMf7zQcTW81m_GGGOq-18" edge="1">
          <mxGeometry relative="1" as="geometry" />
        </mxCell>
        <mxCell id="0XRMf7zQcTW81m_GGGOq-6" value="Login" style="rounded=0;whiteSpace=wrap;html=1;" parent="WIyWlLk6GJQsqaUBKTNV-1" vertex="1">
          <mxGeometry x="280" y="310" width="120" height="30" as="geometry" />
        </mxCell>
        <mxCell id="0XRMf7zQcTW81m_GGGOq-13" style="edgeStyle=orthogonalEdgeStyle;rounded=0;orthogonalLoop=1;jettySize=auto;html=1;exitX=0.5;exitY=1;exitDx=0;exitDy=0;entryX=0.5;entryY=0;entryDx=0;entryDy=0;" parent="WIyWlLk6GJQsqaUBKTNV-1" source="0XRMf7zQcTW81m_GGGOq-7" target="0XRMf7zQcTW81m_GGGOq-11" edge="1">
          <mxGeometry relative="1" as="geometry" />
        </mxCell>
        <mxCell id="0XRMf7zQcTW81m_GGGOq-7" value="Register form" style="rounded=0;whiteSpace=wrap;html=1;" parent="WIyWlLk6GJQsqaUBKTNV-1" vertex="1">
          <mxGeometry x="30" y="390" width="120" height="30" as="geometry" />
        </mxCell>
        <mxCell id="0XRMf7zQcTW81m_GGGOq-14" style="edgeStyle=orthogonalEdgeStyle;rounded=0;orthogonalLoop=1;jettySize=auto;html=1;exitX=0.5;exitY=1;exitDx=0;exitDy=0;entryX=0.5;entryY=0;entryDx=0;entryDy=0;" parent="WIyWlLk6GJQsqaUBKTNV-1" source="0XRMf7zQcTW81m_GGGOq-11" target="0XRMf7zQcTW81m_GGGOq-12" edge="1">
          <mxGeometry relative="1" as="geometry" />
        </mxCell>
        <mxCell id="0XRMf7zQcTW81m_GGGOq-11" value="Send cuplimented form" style="rounded=0;whiteSpace=wrap;html=1;" parent="WIyWlLk6GJQsqaUBKTNV-1" vertex="1">
          <mxGeometry x="30" y="470" width="120" height="50" as="geometry" />
        </mxCell>
        <mxCell id="0XRMf7zQcTW81m_GGGOq-20" style="edgeStyle=orthogonalEdgeStyle;rounded=0;orthogonalLoop=1;jettySize=auto;html=1;exitX=0.5;exitY=1;exitDx=0;exitDy=0;entryX=0;entryY=0.5;entryDx=0;entryDy=0;" parent="WIyWlLk6GJQsqaUBKTNV-1" source="0XRMf7zQcTW81m_GGGOq-12" target="0XRMf7zQcTW81m_GGGOq-6" edge="1">
          <mxGeometry relative="1" as="geometry">
            <mxPoint x="250" y="330" as="targetPoint" />
            <Array as="points">
              <mxPoint x="90" y="670" />
              <mxPoint x="230" y="670" />
              <mxPoint x="230" y="325" />
            </Array>
          </mxGeometry>
        </mxCell>
        <mxCell id="0XRMf7zQcTW81m_GGGOq-121" style="edgeStyle=orthogonalEdgeStyle;rounded=0;orthogonalLoop=1;jettySize=auto;html=1;exitX=1;exitY=0.5;exitDx=0;exitDy=0;entryX=1;entryY=0.5;entryDx=0;entryDy=0;" parent="WIyWlLk6GJQsqaUBKTNV-1" source="0XRMf7zQcTW81m_GGGOq-12" target="0XRMf7zQcTW81m_GGGOq-5" edge="1">
          <mxGeometry relative="1" as="geometry">
            <Array as="points">
              <mxPoint x="190" y="610" />
              <mxPoint x="190" y="325" />
            </Array>
          </mxGeometry>
        </mxCell>
        <mxCell id="0XRMf7zQcTW81m_GGGOq-12" value="Validate" style="rhombus;whiteSpace=wrap;html=1;" parent="WIyWlLk6GJQsqaUBKTNV-1" vertex="1">
          <mxGeometry x="50" y="570" width="80" height="80" as="geometry" />
        </mxCell>
        <mxCell id="0XRMf7zQcTW81m_GGGOq-16" value="No" style="text;html=1;align=center;verticalAlign=middle;resizable=0;points=[];autosize=1;strokeColor=none;fillColor=none;" parent="WIyWlLk6GJQsqaUBKTNV-1" vertex="1">
          <mxGeometry x="130" y="580" width="40" height="30" as="geometry" />
        </mxCell>
        <mxCell id="0XRMf7zQcTW81m_GGGOq-24" style="edgeStyle=orthogonalEdgeStyle;rounded=0;orthogonalLoop=1;jettySize=auto;html=1;exitX=0.5;exitY=1;exitDx=0;exitDy=0;entryX=0.5;entryY=0;entryDx=0;entryDy=0;" parent="WIyWlLk6GJQsqaUBKTNV-1" source="0XRMf7zQcTW81m_GGGOq-18" target="0XRMf7zQcTW81m_GGGOq-23" edge="1">
          <mxGeometry relative="1" as="geometry" />
        </mxCell>
        <mxCell id="0XRMf7zQcTW81m_GGGOq-18" value="Data access" style="rounded=0;whiteSpace=wrap;html=1;" parent="WIyWlLk6GJQsqaUBKTNV-1" vertex="1">
          <mxGeometry x="280" y="390" width="120" height="30" as="geometry" />
        </mxCell>
        <mxCell id="0XRMf7zQcTW81m_GGGOq-22" value="Yes" style="text;html=1;align=center;verticalAlign=middle;resizable=0;points=[];autosize=1;strokeColor=none;fillColor=none;" parent="WIyWlLk6GJQsqaUBKTNV-1" vertex="1">
          <mxGeometry x="90" y="640" width="40" height="30" as="geometry" />
        </mxCell>
        <mxCell id="0XRMf7zQcTW81m_GGGOq-26" style="edgeStyle=orthogonalEdgeStyle;rounded=0;orthogonalLoop=1;jettySize=auto;html=1;entryX=0.5;entryY=0;entryDx=0;entryDy=0;" parent="WIyWlLk6GJQsqaUBKTNV-1" source="0XRMf7zQcTW81m_GGGOq-23" target="0XRMf7zQcTW81m_GGGOq-25" edge="1">
          <mxGeometry relative="1" as="geometry" />
        </mxCell>
        <mxCell id="0XRMf7zQcTW81m_GGGOq-23" value="Send data access" style="rounded=0;whiteSpace=wrap;html=1;" parent="WIyWlLk6GJQsqaUBKTNV-1" vertex="1">
          <mxGeometry x="280" y="470" width="120" height="50" as="geometry" />
        </mxCell>
        <mxCell id="0XRMf7zQcTW81m_GGGOq-27" style="edgeStyle=orthogonalEdgeStyle;rounded=0;orthogonalLoop=1;jettySize=auto;html=1;exitX=1;exitY=0.5;exitDx=0;exitDy=0;entryX=1;entryY=0.5;entryDx=0;entryDy=0;" parent="WIyWlLk6GJQsqaUBKTNV-1" source="0XRMf7zQcTW81m_GGGOq-25" target="0XRMf7zQcTW81m_GGGOq-6" edge="1">
          <mxGeometry relative="1" as="geometry">
            <mxPoint x="440" y="320" as="targetPoint" />
            <Array as="points">
              <mxPoint x="440" y="605" />
              <mxPoint x="440" y="325" />
            </Array>
          </mxGeometry>
        </mxCell>
        <mxCell id="0XRMf7zQcTW81m_GGGOq-34" style="edgeStyle=orthogonalEdgeStyle;rounded=0;orthogonalLoop=1;jettySize=auto;html=1;entryX=0.5;entryY=0;entryDx=0;entryDy=0;" parent="WIyWlLk6GJQsqaUBKTNV-1" source="0XRMf7zQcTW81m_GGGOq-25" target="0XRMf7zQcTW81m_GGGOq-32" edge="1">
          <mxGeometry relative="1" as="geometry" />
        </mxCell>
        <mxCell id="0XRMf7zQcTW81m_GGGOq-25" value="Validate" style="rhombus;whiteSpace=wrap;html=1;" parent="WIyWlLk6GJQsqaUBKTNV-1" vertex="1">
          <mxGeometry x="300" y="565" width="80" height="80" as="geometry" />
        </mxCell>
        <mxCell id="0XRMf7zQcTW81m_GGGOq-28" value="No" style="text;html=1;align=center;verticalAlign=middle;resizable=0;points=[];autosize=1;strokeColor=none;fillColor=none;" parent="WIyWlLk6GJQsqaUBKTNV-1" vertex="1">
          <mxGeometry x="380" y="570" width="40" height="30" as="geometry" />
        </mxCell>
        <mxCell id="0XRMf7zQcTW81m_GGGOq-30" value="Yes" style="text;html=1;align=center;verticalAlign=middle;resizable=0;points=[];autosize=1;strokeColor=none;fillColor=none;" parent="WIyWlLk6GJQsqaUBKTNV-1" vertex="1">
          <mxGeometry x="340" y="670" width="40" height="30" as="geometry" />
        </mxCell>
        <mxCell id="0XRMf7zQcTW81m_GGGOq-115" style="edgeStyle=orthogonalEdgeStyle;rounded=0;orthogonalLoop=1;jettySize=auto;html=1;exitX=0;exitY=0.5;exitDx=0;exitDy=0;entryX=0.5;entryY=1;entryDx=0;entryDy=0;" parent="WIyWlLk6GJQsqaUBKTNV-1" source="0XRMf7zQcTW81m_GGGOq-32" target="WIyWlLk6GJQsqaUBKTNV-3" edge="1">
          <mxGeometry relative="1" as="geometry">
            <mxPoint x="720" y="750" as="targetPoint" />
            <Array as="points">
              <mxPoint x="10" y="726" />
              <mxPoint x="10" y="1160" />
              <mxPoint x="790" y="1160" />
              <mxPoint x="790" y="680" />
              <mxPoint x="750" y="680" />
            </Array>
          </mxGeometry>
        </mxCell>
        <mxCell id="0XRMf7zQcTW81m_GGGOq-32" value="Access (token acquisition)" style="rounded=0;whiteSpace=wrap;html=1;" parent="WIyWlLk6GJQsqaUBKTNV-1" vertex="1">
          <mxGeometry x="280" y="700" width="120" height="52" as="geometry" />
        </mxCell>
        <mxCell id="0XRMf7zQcTW81m_GGGOq-103" style="edgeStyle=orthogonalEdgeStyle;rounded=0;orthogonalLoop=1;jettySize=auto;html=1;exitX=0.25;exitY=0;exitDx=0;exitDy=0;entryX=1;entryY=0.25;entryDx=0;entryDy=0;" parent="WIyWlLk6GJQsqaUBKTNV-1" source="0XRMf7zQcTW81m_GGGOq-46" target="0XRMf7zQcTW81m_GGGOq-56" edge="1">
          <mxGeometry relative="1" as="geometry" />
        </mxCell>
        <mxCell id="0XRMf7zQcTW81m_GGGOq-104" style="edgeStyle=orthogonalEdgeStyle;rounded=0;orthogonalLoop=1;jettySize=auto;html=1;exitX=0.25;exitY=1;exitDx=0;exitDy=0;entryX=1;entryY=0.5;entryDx=0;entryDy=0;" parent="WIyWlLk6GJQsqaUBKTNV-1" source="0XRMf7zQcTW81m_GGGOq-46" target="0XRMf7zQcTW81m_GGGOq-55" edge="1">
          <mxGeometry relative="1" as="geometry" />
        </mxCell>
        <mxCell id="7uXqOGeaRiAeMGcWkN8i-1" style="edgeStyle=orthogonalEdgeStyle;rounded=0;orthogonalLoop=1;jettySize=auto;html=1;exitX=0.5;exitY=0;exitDx=0;exitDy=0;entryX=0;entryY=0.75;entryDx=0;entryDy=0;" parent="WIyWlLk6GJQsqaUBKTNV-1" source="0XRMf7zQcTW81m_GGGOq-46" target="WIyWlLk6GJQsqaUBKTNV-3" edge="1">
          <mxGeometry relative="1" as="geometry">
            <Array as="points">
              <mxPoint x="480" y="930" />
              <mxPoint x="480" y="650" />
            </Array>
          </mxGeometry>
        </mxCell>
        <mxCell id="HVhLnMr5vrfRHA81DKl2-6" style="edgeStyle=orthogonalEdgeStyle;rounded=0;orthogonalLoop=1;jettySize=auto;html=1;exitX=0.5;exitY=0;exitDx=0;exitDy=0;entryX=0;entryY=0.5;entryDx=0;entryDy=0;" edge="1" parent="WIyWlLk6GJQsqaUBKTNV-1" source="0XRMf7zQcTW81m_GGGOq-46" target="HVhLnMr5vrfRHA81DKl2-5">
          <mxGeometry relative="1" as="geometry" />
        </mxCell>
        <mxCell id="HVhLnMr5vrfRHA81DKl2-18" style="edgeStyle=orthogonalEdgeStyle;rounded=0;orthogonalLoop=1;jettySize=auto;html=1;exitX=1;exitY=0.25;exitDx=0;exitDy=0;entryX=0.5;entryY=1;entryDx=0;entryDy=0;" edge="1" parent="WIyWlLk6GJQsqaUBKTNV-1" source="0XRMf7zQcTW81m_GGGOq-46" target="0XRMf7zQcTW81m_GGGOq-122">
          <mxGeometry relative="1" as="geometry" />
        </mxCell>
        <mxCell id="HVhLnMr5vrfRHA81DKl2-19" style="edgeStyle=orthogonalEdgeStyle;rounded=0;orthogonalLoop=1;jettySize=auto;html=1;exitX=1;exitY=0.75;exitDx=0;exitDy=0;entryX=0.5;entryY=0;entryDx=0;entryDy=0;" edge="1" parent="WIyWlLk6GJQsqaUBKTNV-1" source="0XRMf7zQcTW81m_GGGOq-46" target="HVhLnMr5vrfRHA81DKl2-1">
          <mxGeometry relative="1" as="geometry" />
        </mxCell>
        <mxCell id="HVhLnMr5vrfRHA81DKl2-22" style="edgeStyle=orthogonalEdgeStyle;rounded=0;orthogonalLoop=1;jettySize=auto;html=1;exitX=0.5;exitY=1;exitDx=0;exitDy=0;entryX=1;entryY=0.5;entryDx=0;entryDy=0;" edge="1" parent="WIyWlLk6GJQsqaUBKTNV-1" source="0XRMf7zQcTW81m_GGGOq-46" target="0XRMf7zQcTW81m_GGGOq-54">
          <mxGeometry relative="1" as="geometry" />
        </mxCell>
        <mxCell id="0XRMf7zQcTW81m_GGGOq-46" value="Profile" style="rounded=0;whiteSpace=wrap;html=1;" parent="WIyWlLk6GJQsqaUBKTNV-1" vertex="1">
          <mxGeometry x="440" y="930" width="120" height="30" as="geometry" />
        </mxCell>
        <mxCell id="0XRMf7zQcTW81m_GGGOq-54" value="Invoices" style="rounded=0;whiteSpace=wrap;html=1;" parent="WIyWlLk6GJQsqaUBKTNV-1" vertex="1">
          <mxGeometry x="240" y="1110" width="120" height="30" as="geometry" />
        </mxCell>
        <mxCell id="0XRMf7zQcTW81m_GGGOq-55" value="Appointments calendar" style="rounded=0;whiteSpace=wrap;html=1;" parent="WIyWlLk6GJQsqaUBKTNV-1" vertex="1">
          <mxGeometry x="230" y="990" width="120" height="40" as="geometry" />
        </mxCell>
        <mxCell id="0XRMf7zQcTW81m_GGGOq-70" style="edgeStyle=orthogonalEdgeStyle;rounded=0;orthogonalLoop=1;jettySize=auto;html=1;exitX=0;exitY=0.5;exitDx=0;exitDy=0;entryX=1;entryY=0.5;entryDx=0;entryDy=0;" parent="WIyWlLk6GJQsqaUBKTNV-1" source="0XRMf7zQcTW81m_GGGOq-56" target="0XRMf7zQcTW81m_GGGOq-68" edge="1">
          <mxGeometry relative="1" as="geometry" />
        </mxCell>
        <mxCell id="0XRMf7zQcTW81m_GGGOq-56" value="New appointment" style="rounded=0;whiteSpace=wrap;html=1;" parent="WIyWlLk6GJQsqaUBKTNV-1" vertex="1">
          <mxGeometry x="320" y="840" width="120" height="40" as="geometry" />
        </mxCell>
        <mxCell id="0XRMf7zQcTW81m_GGGOq-74" style="edgeStyle=orthogonalEdgeStyle;rounded=0;orthogonalLoop=1;jettySize=auto;html=1;exitX=0;exitY=0.5;exitDx=0;exitDy=0;entryX=1;entryY=0.5;entryDx=0;entryDy=0;" parent="WIyWlLk6GJQsqaUBKTNV-1" source="0XRMf7zQcTW81m_GGGOq-68" target="0XRMf7zQcTW81m_GGGOq-73" edge="1">
          <mxGeometry relative="1" as="geometry" />
        </mxCell>
        <mxCell id="0XRMf7zQcTW81m_GGGOq-68" value="Select date and time" style="rounded=0;whiteSpace=wrap;html=1;" parent="WIyWlLk6GJQsqaUBKTNV-1" vertex="1">
          <mxGeometry x="160" y="840" width="120" height="40" as="geometry" />
        </mxCell>
        <mxCell id="0XRMf7zQcTW81m_GGGOq-69" style="edgeStyle=orthogonalEdgeStyle;rounded=0;orthogonalLoop=1;jettySize=auto;html=1;exitX=0.5;exitY=1;exitDx=0;exitDy=0;" parent="WIyWlLk6GJQsqaUBKTNV-1" source="0XRMf7zQcTW81m_GGGOq-68" target="0XRMf7zQcTW81m_GGGOq-68" edge="1">
          <mxGeometry relative="1" as="geometry" />
        </mxCell>
        <mxCell id="0XRMf7zQcTW81m_GGGOq-80" style="edgeStyle=orthogonalEdgeStyle;rounded=0;orthogonalLoop=1;jettySize=auto;html=1;exitX=1;exitY=0.5;exitDx=0;exitDy=0;entryX=0.5;entryY=1;entryDx=0;entryDy=0;" parent="WIyWlLk6GJQsqaUBKTNV-1" source="0XRMf7zQcTW81m_GGGOq-72" target="0XRMf7zQcTW81m_GGGOq-68" edge="1">
          <mxGeometry relative="1" as="geometry" />
        </mxCell>
        <mxCell id="0XRMf7zQcTW81m_GGGOq-97" style="edgeStyle=orthogonalEdgeStyle;rounded=0;orthogonalLoop=1;jettySize=auto;html=1;exitX=0.5;exitY=1;exitDx=0;exitDy=0;entryX=0.5;entryY=1;entryDx=0;entryDy=0;" parent="WIyWlLk6GJQsqaUBKTNV-1" source="0XRMf7zQcTW81m_GGGOq-72" target="0XRMf7zQcTW81m_GGGOq-55" edge="1">
          <mxGeometry relative="1" as="geometry">
            <Array as="points">
              <mxPoint x="90" y="1070" />
              <mxPoint x="290" y="1070" />
            </Array>
          </mxGeometry>
        </mxCell>
        <mxCell id="0XRMf7zQcTW81m_GGGOq-72" value="Check availability" style="rhombus;whiteSpace=wrap;html=1;" parent="WIyWlLk6GJQsqaUBKTNV-1" vertex="1">
          <mxGeometry x="50" y="950" width="80" height="80" as="geometry" />
        </mxCell>
        <mxCell id="0XRMf7zQcTW81m_GGGOq-78" style="edgeStyle=orthogonalEdgeStyle;rounded=0;orthogonalLoop=1;jettySize=auto;html=1;exitX=0.5;exitY=1;exitDx=0;exitDy=0;entryX=0.5;entryY=0;entryDx=0;entryDy=0;" parent="WIyWlLk6GJQsqaUBKTNV-1" source="0XRMf7zQcTW81m_GGGOq-73" target="0XRMf7zQcTW81m_GGGOq-72" edge="1">
          <mxGeometry relative="1" as="geometry" />
        </mxCell>
        <mxCell id="0XRMf7zQcTW81m_GGGOq-116" style="edgeStyle=orthogonalEdgeStyle;rounded=0;orthogonalLoop=1;jettySize=auto;html=1;exitX=0;exitY=0.5;exitDx=0;exitDy=0;entryX=0.5;entryY=0;entryDx=0;entryDy=0;" parent="WIyWlLk6GJQsqaUBKTNV-1" source="0XRMf7zQcTW81m_GGGOq-73" target="0XRMf7zQcTW81m_GGGOq-68" edge="1">
          <mxGeometry relative="1" as="geometry">
            <Array as="points">
              <mxPoint x="20" y="860" />
              <mxPoint x="20" y="800" />
              <mxPoint x="220" y="800" />
            </Array>
          </mxGeometry>
        </mxCell>
        <mxCell id="0XRMf7zQcTW81m_GGGOq-73" value="Valid date" style="rhombus;whiteSpace=wrap;html=1;" parent="WIyWlLk6GJQsqaUBKTNV-1" vertex="1">
          <mxGeometry x="50" y="820" width="80" height="80" as="geometry" />
        </mxCell>
        <mxCell id="0XRMf7zQcTW81m_GGGOq-76" value="No" style="text;html=1;align=center;verticalAlign=middle;resizable=0;points=[];autosize=1;strokeColor=none;fillColor=none;" parent="WIyWlLk6GJQsqaUBKTNV-1" vertex="1">
          <mxGeometry x="20" y="830" width="40" height="30" as="geometry" />
        </mxCell>
        <mxCell id="0XRMf7zQcTW81m_GGGOq-79" value="Yes" style="text;html=1;align=center;verticalAlign=middle;resizable=0;points=[];autosize=1;strokeColor=none;fillColor=none;" parent="WIyWlLk6GJQsqaUBKTNV-1" vertex="1">
          <mxGeometry x="90" y="900" width="40" height="30" as="geometry" />
        </mxCell>
        <mxCell id="0XRMf7zQcTW81m_GGGOq-81" value="No" style="text;html=1;align=center;verticalAlign=middle;resizable=0;points=[];autosize=1;strokeColor=none;fillColor=none;" parent="WIyWlLk6GJQsqaUBKTNV-1" vertex="1">
          <mxGeometry x="130" y="960" width="40" height="30" as="geometry" />
        </mxCell>
        <mxCell id="0XRMf7zQcTW81m_GGGOq-85" value="Yes" style="text;html=1;align=center;verticalAlign=middle;resizable=0;points=[];autosize=1;strokeColor=none;fillColor=none;" parent="WIyWlLk6GJQsqaUBKTNV-1" vertex="1">
          <mxGeometry x="90" y="1030" width="40" height="30" as="geometry" />
        </mxCell>
        <mxCell id="0XRMf7zQcTW81m_GGGOq-127" style="edgeStyle=orthogonalEdgeStyle;rounded=0;orthogonalLoop=1;jettySize=auto;html=1;exitX=0.5;exitY=0;exitDx=0;exitDy=0;entryX=0.5;entryY=1;entryDx=0;entryDy=0;" parent="WIyWlLk6GJQsqaUBKTNV-1" source="0XRMf7zQcTW81m_GGGOq-86" target="0XRMf7zQcTW81m_GGGOq-88" edge="1">
          <mxGeometry relative="1" as="geometry" />
        </mxCell>
        <mxCell id="0XRMf7zQcTW81m_GGGOq-86" value="Product select" style="rounded=0;whiteSpace=wrap;html=1;" parent="WIyWlLk6GJQsqaUBKTNV-1" vertex="1">
          <mxGeometry x="620" y="370" width="120" height="30" as="geometry" />
        </mxCell>
        <mxCell id="0XRMf7zQcTW81m_GGGOq-128" style="edgeStyle=orthogonalEdgeStyle;rounded=0;orthogonalLoop=1;jettySize=auto;html=1;exitX=0.5;exitY=0;exitDx=0;exitDy=0;entryX=0.5;entryY=1;entryDx=0;entryDy=0;" parent="WIyWlLk6GJQsqaUBKTNV-1" source="0XRMf7zQcTW81m_GGGOq-88" target="0XRMf7zQcTW81m_GGGOq-90" edge="1">
          <mxGeometry relative="1" as="geometry" />
        </mxCell>
        <mxCell id="0XRMf7zQcTW81m_GGGOq-88" value="Add to chart" style="rounded=0;whiteSpace=wrap;html=1;" parent="WIyWlLk6GJQsqaUBKTNV-1" vertex="1">
          <mxGeometry x="620" y="300" width="120" height="30" as="geometry" />
        </mxCell>
        <mxCell id="0XRMf7zQcTW81m_GGGOq-129" style="edgeStyle=orthogonalEdgeStyle;rounded=0;orthogonalLoop=1;jettySize=auto;html=1;exitX=0.5;exitY=0;exitDx=0;exitDy=0;entryX=0.5;entryY=1;entryDx=0;entryDy=0;" parent="WIyWlLk6GJQsqaUBKTNV-1" source="0XRMf7zQcTW81m_GGGOq-90" target="0XRMf7zQcTW81m_GGGOq-93" edge="1">
          <mxGeometry relative="1" as="geometry" />
        </mxCell>
        <mxCell id="0XRMf7zQcTW81m_GGGOq-90" value="Chart" style="rounded=0;whiteSpace=wrap;html=1;" parent="WIyWlLk6GJQsqaUBKTNV-1" vertex="1">
          <mxGeometry x="620" y="220" width="120" height="30" as="geometry" />
        </mxCell>
        <mxCell id="0XRMf7zQcTW81m_GGGOq-139" style="edgeStyle=orthogonalEdgeStyle;rounded=0;orthogonalLoop=1;jettySize=auto;html=1;exitX=0;exitY=0.5;exitDx=0;exitDy=0;entryX=1;entryY=0.5;entryDx=0;entryDy=0;" parent="WIyWlLk6GJQsqaUBKTNV-1" source="0XRMf7zQcTW81m_GGGOq-91" target="0XRMf7zQcTW81m_GGGOq-92" edge="1">
          <mxGeometry relative="1" as="geometry" />
        </mxCell>
        <mxCell id="0XRMf7zQcTW81m_GGGOq-91" value="Payment Gateway" style="rounded=0;whiteSpace=wrap;html=1;" parent="WIyWlLk6GJQsqaUBKTNV-1" vertex="1">
          <mxGeometry x="440" y="80" width="120" height="30" as="geometry" />
        </mxCell>
        <mxCell id="0XRMf7zQcTW81m_GGGOq-140" style="edgeStyle=orthogonalEdgeStyle;rounded=0;orthogonalLoop=1;jettySize=auto;html=1;exitX=0.5;exitY=0;exitDx=0;exitDy=0;entryX=1;entryY=0.5;entryDx=0;entryDy=0;" parent="WIyWlLk6GJQsqaUBKTNV-1" source="0XRMf7zQcTW81m_GGGOq-92" target="0XRMf7zQcTW81m_GGGOq-90" edge="1">
          <mxGeometry relative="1" as="geometry" />
        </mxCell>
        <mxCell id="0XRMf7zQcTW81m_GGGOq-141" style="edgeStyle=orthogonalEdgeStyle;rounded=0;orthogonalLoop=1;jettySize=auto;html=1;exitX=0;exitY=0.5;exitDx=0;exitDy=0;entryX=1;entryY=0.5;entryDx=0;entryDy=0;" parent="WIyWlLk6GJQsqaUBKTNV-1" source="0XRMf7zQcTW81m_GGGOq-92" target="0XRMf7zQcTW81m_GGGOq-0" edge="1">
          <mxGeometry relative="1" as="geometry">
            <Array as="points">
              <mxPoint x="280" y="95" />
              <mxPoint x="280" y="10" />
              <mxPoint x="800" y="10" />
              <mxPoint x="800" y="460" />
            </Array>
          </mxGeometry>
        </mxCell>
        <mxCell id="0XRMf7zQcTW81m_GGGOq-92" value="Payment made" style="rhombus;whiteSpace=wrap;html=1;" parent="WIyWlLk6GJQsqaUBKTNV-1" vertex="1">
          <mxGeometry x="300" y="55" width="80" height="80" as="geometry" />
        </mxCell>
        <mxCell id="0XRMf7zQcTW81m_GGGOq-133" style="edgeStyle=orthogonalEdgeStyle;rounded=0;orthogonalLoop=1;jettySize=auto;html=1;exitX=0.5;exitY=0;exitDx=0;exitDy=0;entryX=1;entryY=0.5;entryDx=0;entryDy=0;" parent="WIyWlLk6GJQsqaUBKTNV-1" source="0XRMf7zQcTW81m_GGGOq-93" target="0XRMf7zQcTW81m_GGGOq-91" edge="1">
          <mxGeometry relative="1" as="geometry" />
        </mxCell>
        <mxCell id="0XRMf7zQcTW81m_GGGOq-135" style="edgeStyle=orthogonalEdgeStyle;rounded=0;orthogonalLoop=1;jettySize=auto;html=1;exitX=0;exitY=0.5;exitDx=0;exitDy=0;entryX=0.5;entryY=0;entryDx=0;entryDy=0;" parent="WIyWlLk6GJQsqaUBKTNV-1" source="0XRMf7zQcTW81m_GGGOq-93" target="0XRMf7zQcTW81m_GGGOq-4" edge="1">
          <mxGeometry relative="1" as="geometry" />
        </mxCell>
        <mxCell id="0XRMf7zQcTW81m_GGGOq-93" value="Have token" style="rhombus;whiteSpace=wrap;html=1;" parent="WIyWlLk6GJQsqaUBKTNV-1" vertex="1">
          <mxGeometry x="640" y="120" width="80" height="80" as="geometry" />
        </mxCell>
        <mxCell id="HVhLnMr5vrfRHA81DKl2-10" style="edgeStyle=orthogonalEdgeStyle;rounded=0;orthogonalLoop=1;jettySize=auto;html=1;exitX=0.5;exitY=0;exitDx=0;exitDy=0;entryX=0.5;entryY=1;entryDx=0;entryDy=0;" edge="1" parent="WIyWlLk6GJQsqaUBKTNV-1" source="0XRMf7zQcTW81m_GGGOq-122" target="HVhLnMr5vrfRHA81DKl2-0">
          <mxGeometry relative="1" as="geometry" />
        </mxCell>
        <mxCell id="0XRMf7zQcTW81m_GGGOq-122" value="Manage profile" style="rounded=0;whiteSpace=wrap;html=1;" parent="WIyWlLk6GJQsqaUBKTNV-1" vertex="1">
          <mxGeometry x="560" y="880" width="120" height="30" as="geometry" />
        </mxCell>
        <mxCell id="0XRMf7zQcTW81m_GGGOq-131" value="No" style="text;html=1;align=center;verticalAlign=middle;resizable=0;points=[];autosize=1;strokeColor=none;fillColor=none;" parent="WIyWlLk6GJQsqaUBKTNV-1" vertex="1">
          <mxGeometry x="600" y="130" width="40" height="30" as="geometry" />
        </mxCell>
        <mxCell id="0XRMf7zQcTW81m_GGGOq-134" value="Yes" style="text;html=1;align=center;verticalAlign=middle;resizable=0;points=[];autosize=1;strokeColor=none;fillColor=none;" parent="WIyWlLk6GJQsqaUBKTNV-1" vertex="1">
          <mxGeometry x="680" y="90" width="40" height="30" as="geometry" />
        </mxCell>
        <mxCell id="0XRMf7zQcTW81m_GGGOq-142" value="No" style="text;html=1;align=center;verticalAlign=middle;resizable=0;points=[];autosize=1;strokeColor=none;fillColor=none;" parent="WIyWlLk6GJQsqaUBKTNV-1" vertex="1">
          <mxGeometry x="300" y="25" width="40" height="30" as="geometry" />
        </mxCell>
        <mxCell id="0XRMf7zQcTW81m_GGGOq-143" value="Yes" style="text;html=1;align=center;verticalAlign=middle;resizable=0;points=[];autosize=1;strokeColor=none;fillColor=none;" parent="WIyWlLk6GJQsqaUBKTNV-1" vertex="1">
          <mxGeometry x="260" y="100" width="40" height="30" as="geometry" />
        </mxCell>
        <mxCell id="HVhLnMr5vrfRHA81DKl2-25" style="edgeStyle=orthogonalEdgeStyle;rounded=0;orthogonalLoop=1;jettySize=auto;html=1;exitX=1;exitY=0.25;exitDx=0;exitDy=0;entryX=1;entryY=0.5;entryDx=0;entryDy=0;" edge="1" parent="WIyWlLk6GJQsqaUBKTNV-1" source="HVhLnMr5vrfRHA81DKl2-0" target="HVhLnMr5vrfRHA81DKl2-2">
          <mxGeometry relative="1" as="geometry" />
        </mxCell>
        <mxCell id="HVhLnMr5vrfRHA81DKl2-28" style="edgeStyle=orthogonalEdgeStyle;rounded=0;orthogonalLoop=1;jettySize=auto;html=1;exitX=1;exitY=0.75;exitDx=0;exitDy=0;entryX=1;entryY=0.5;entryDx=0;entryDy=0;" edge="1" parent="WIyWlLk6GJQsqaUBKTNV-1" source="HVhLnMr5vrfRHA81DKl2-0" target="HVhLnMr5vrfRHA81DKl2-4">
          <mxGeometry relative="1" as="geometry">
            <Array as="points">
              <mxPoint x="720" y="843" />
              <mxPoint x="720" y="745" />
            </Array>
          </mxGeometry>
        </mxCell>
        <mxCell id="HVhLnMr5vrfRHA81DKl2-0" value="Edit profile" style="rounded=0;whiteSpace=wrap;html=1;" vertex="1" parent="WIyWlLk6GJQsqaUBKTNV-1">
          <mxGeometry x="560" y="820" width="120" height="30" as="geometry" />
        </mxCell>
        <mxCell id="HVhLnMr5vrfRHA81DKl2-32" style="edgeStyle=orthogonalEdgeStyle;rounded=0;orthogonalLoop=1;jettySize=auto;html=1;exitX=1;exitY=0.75;exitDx=0;exitDy=0;entryX=1;entryY=0.5;entryDx=0;entryDy=0;" edge="1" parent="WIyWlLk6GJQsqaUBKTNV-1" source="HVhLnMr5vrfRHA81DKl2-1" target="HVhLnMr5vrfRHA81DKl2-21">
          <mxGeometry relative="1" as="geometry" />
        </mxCell>
        <mxCell id="HVhLnMr5vrfRHA81DKl2-33" style="edgeStyle=orthogonalEdgeStyle;rounded=0;orthogonalLoop=1;jettySize=auto;html=1;exitX=1;exitY=0.25;exitDx=0;exitDy=0;entryX=1;entryY=0.5;entryDx=0;entryDy=0;" edge="1" parent="WIyWlLk6GJQsqaUBKTNV-1" source="HVhLnMr5vrfRHA81DKl2-1" target="HVhLnMr5vrfRHA81DKl2-20">
          <mxGeometry relative="1" as="geometry">
            <Array as="points">
              <mxPoint x="720" y="988" />
              <mxPoint x="720" y="1105" />
            </Array>
          </mxGeometry>
        </mxCell>
        <mxCell id="HVhLnMr5vrfRHA81DKl2-1" value="Manage appointment" style="rounded=0;whiteSpace=wrap;html=1;" vertex="1" parent="WIyWlLk6GJQsqaUBKTNV-1">
          <mxGeometry x="560" y="980" width="120" height="30" as="geometry" />
        </mxCell>
        <mxCell id="HVhLnMr5vrfRHA81DKl2-2" value="&lt;div&gt;Update profile&lt;/div&gt;" style="rounded=0;whiteSpace=wrap;html=1;" vertex="1" parent="WIyWlLk6GJQsqaUBKTNV-1">
          <mxGeometry x="560" y="770" width="120" height="30" as="geometry" />
        </mxCell>
        <mxCell id="HVhLnMr5vrfRHA81DKl2-16" style="edgeStyle=orthogonalEdgeStyle;rounded=0;orthogonalLoop=1;jettySize=auto;html=1;exitX=0.5;exitY=0;exitDx=0;exitDy=0;entryX=0.5;entryY=1;entryDx=0;entryDy=0;" edge="1" parent="WIyWlLk6GJQsqaUBKTNV-1" source="HVhLnMr5vrfRHA81DKl2-4" target="HVhLnMr5vrfRHA81DKl2-5">
          <mxGeometry relative="1" as="geometry" />
        </mxCell>
        <mxCell id="HVhLnMr5vrfRHA81DKl2-4" value="&lt;div&gt;Delete profile&lt;/div&gt;" style="rounded=0;whiteSpace=wrap;html=1;" vertex="1" parent="WIyWlLk6GJQsqaUBKTNV-1">
          <mxGeometry x="560" y="730" width="120" height="30" as="geometry" />
        </mxCell>
        <mxCell id="HVhLnMr5vrfRHA81DKl2-17" style="edgeStyle=orthogonalEdgeStyle;rounded=0;orthogonalLoop=1;jettySize=auto;html=1;exitX=1;exitY=0.5;exitDx=0;exitDy=0;entryX=0.25;entryY=1;entryDx=0;entryDy=0;" edge="1" parent="WIyWlLk6GJQsqaUBKTNV-1" source="HVhLnMr5vrfRHA81DKl2-5" target="WIyWlLk6GJQsqaUBKTNV-3">
          <mxGeometry relative="1" as="geometry" />
        </mxCell>
        <mxCell id="HVhLnMr5vrfRHA81DKl2-5" value="&lt;div&gt;LogOut&lt;br&gt;&lt;/div&gt;" style="rounded=0;whiteSpace=wrap;html=1;" vertex="1" parent="WIyWlLk6GJQsqaUBKTNV-1">
          <mxGeometry x="560" y="670" width="120" height="30" as="geometry" />
        </mxCell>
        <mxCell id="HVhLnMr5vrfRHA81DKl2-20" value="&lt;div&gt;Update profile&lt;/div&gt;" style="rounded=0;whiteSpace=wrap;html=1;" vertex="1" parent="WIyWlLk6GJQsqaUBKTNV-1">
          <mxGeometry x="560" y="1090" width="120" height="30" as="geometry" />
        </mxCell>
        <mxCell id="HVhLnMr5vrfRHA81DKl2-21" value="&lt;div&gt;Delete profile&lt;/div&gt;" style="rounded=0;whiteSpace=wrap;html=1;" vertex="1" parent="WIyWlLk6GJQsqaUBKTNV-1">
          <mxGeometry x="560" y="1051" width="120" height="30" as="geometry" />
        </mxCell>
        <mxCell id="HVhLnMr5vrfRHA81DKl2-27" style="edgeStyle=orthogonalEdgeStyle;rounded=0;orthogonalLoop=1;jettySize=auto;html=1;exitX=0;exitY=0.5;exitDx=0;exitDy=0;" edge="1" parent="WIyWlLk6GJQsqaUBKTNV-1" source="HVhLnMr5vrfRHA81DKl2-2">
          <mxGeometry relative="1" as="geometry">
            <mxPoint x="520" y="930" as="targetPoint" />
          </mxGeometry>
        </mxCell>
        <mxCell id="HVhLnMr5vrfRHA81DKl2-30" style="edgeStyle=orthogonalEdgeStyle;rounded=0;orthogonalLoop=1;jettySize=auto;html=1;exitX=0;exitY=0.5;exitDx=0;exitDy=0;entryX=0.817;entryY=1.033;entryDx=0;entryDy=0;entryPerimeter=0;" edge="1" parent="WIyWlLk6GJQsqaUBKTNV-1" source="HVhLnMr5vrfRHA81DKl2-21" target="0XRMf7zQcTW81m_GGGOq-46">
          <mxGeometry relative="1" as="geometry" />
        </mxCell>
        <mxCell id="HVhLnMr5vrfRHA81DKl2-31" style="edgeStyle=orthogonalEdgeStyle;rounded=0;orthogonalLoop=1;jettySize=auto;html=1;exitX=0;exitY=0.5;exitDx=0;exitDy=0;entryX=0.658;entryY=1.067;entryDx=0;entryDy=0;entryPerimeter=0;" edge="1" parent="WIyWlLk6GJQsqaUBKTNV-1" source="HVhLnMr5vrfRHA81DKl2-20" target="0XRMf7zQcTW81m_GGGOq-46">
          <mxGeometry relative="1" as="geometry" />
        </mxCell>
      </root>
    </mxGraphModel>
  </diagram>
</mxfile>
